<?xml version="1.0" encoding="UTF-8" standalone="no"?>
<!-- Created with Inkscape (http://www.inkscape.org/) -->

<svg
   xmlns:dc="http://purl.org/dc/elements/1.1/"
   xmlns:cc="http://creativecommons.org/ns#"
   xmlns:rdf="http://www.w3.org/1999/02/22-rdf-syntax-ns#"
   xmlns:svg="http://www.w3.org/2000/svg"
   xmlns="http://www.w3.org/2000/svg"
   xmlns:sodipodi="http://sodipodi.sourceforge.net/DTD/sodipodi-0.dtd"
   xmlns:inkscape="http://www.inkscape.org/namespaces/inkscape"
   width="115.90475mm"
   height="63.804192mm"
   viewBox="0 0 115.90475 63.804192"
   version="1.1"
   id="svg8"
   inkscape:version="0.92.3 (2405546, 2018-03-11)"
   sodipodi:docname="en.svg"
   inkscape:export-filename="./logo.png"
   inkscape:export-xdpi="36.624554"
   inkscape:export-ydpi="36.624554">
  <defs
     id="defs2" />
  <sodipodi:namedview
     id="base"
     pagecolor="#ffffff"
     bordercolor="#666666"
     borderopacity="1.0"
     inkscape:pageopacity="0.0"
     inkscape:pageshadow="2"
     inkscape:zoom="1.979899"
     inkscape:cx="233.74655"
     inkscape:cy="95.889103"
     inkscape:document-units="mm"
     inkscape:current-layer="layer1"
     showgrid="false"
     fit-margin-top="0"
     fit-margin-left="0"
     fit-margin-right="0"
     fit-margin-bottom="0"
     inkscape:snap-global="false"
     inkscape:window-width="1440"
     inkscape:window-height="832"
     inkscape:window-x="0"
     inkscape:window-y="208"
     inkscape:window-maximized="1" />
  <metadata
     id="metadata5">
    <rdf:RDF>
      <cc:Work
         rdf:about="">
        <dc:format>image/svg+xml</dc:format>
        <dc:type
           rdf:resource="http://purl.org/dc/dcmitype/StillImage" />
        <dc:title></dc:title>
      </cc:Work>
    </rdf:RDF>
  </metadata>
  <g
     inkscape:label="Layer 1"
     inkscape:groupmode="layer"
     id="layer1"
     transform="translate(-22.178572,-92.181557)">
    <g
       id="g1026"
       transform="matrix(3.4742236,0,0,3.0186099,-225.41461,-452.91042)">
      <g
         transform="matrix(0.28405894,0.00128839,-0.00128839,0.28405894,49.890512,173.12172)"
         id="g4964"
         style="display:inline">
        <rect
           style="fill:#ffffff;fill-opacity:1;stroke:#000000;stroke-width:0.93142861;stroke-linecap:round;stroke-linejoin:round;stroke-miterlimit:4;stroke-dasharray:none;stroke-dashoffset:0;stroke-opacity:1"
           id="rect4966"
           width="116.24634"
           height="72.670723"
           x="76.133636"
           y="26.372019" />
        <rect
           y="26.372019"
           x="76.133636"
           height="5.8208508"
           width="116.24633"
           id="rect4968"
           style="fill:#d40000;fill-opacity:1;stroke:#550000;stroke-width:0.93142861;stroke-linecap:round;stroke-linejoin:round;stroke-miterlimit:4;stroke-dasharray:none;stroke-dashoffset:0;stroke-opacity:1" />
        <rect
           style="fill:#d40000;fill-opacity:1;stroke:#550000;stroke-width:0.93142861;stroke-linecap:round;stroke-linejoin:round;stroke-miterlimit:4;stroke-dasharray:none;stroke-dashoffset:0;stroke-opacity:1"
           id="rect4970"
           width="116.24633"
           height="5.8208508"
           x="76.133636"
           y="37.549164" />
        <rect
           y="48.726307"
           x="76.133636"
           height="5.8208508"
           width="116.24633"
           id="rect4972"
           style="fill:#d40000;fill-opacity:1;stroke:#550000;stroke-width:0.93142861;stroke-linecap:round;stroke-linejoin:round;stroke-miterlimit:4;stroke-dasharray:none;stroke-dashoffset:0;stroke-opacity:1" />
        <rect
           style="fill:#d40000;fill-opacity:1;stroke:#550000;stroke-width:0.93142861;stroke-linecap:round;stroke-linejoin:round;stroke-miterlimit:4;stroke-dasharray:none;stroke-dashoffset:0;stroke-opacity:1"
           id="rect4974"
           width="116.24633"
           height="5.8208508"
           x="76.133636"
           y="59.903431" />
        <rect
           y="26.372019"
           x="76.133636"
           height="39.258759"
           width="42.810265"
           id="rect4976"
           style="fill:#0044aa;fill-opacity:1;stroke:#00112b;stroke-width:0.93142861;stroke-linecap:round;stroke-linejoin:round;stroke-miterlimit:4;stroke-dasharray:none;stroke-dashoffset:0;stroke-opacity:1" />
        <rect
           y="71.080559"
           x="76.133636"
           height="5.8208508"
           width="116.24633"
           id="rect4978"
           style="fill:#d40000;fill-opacity:1;stroke:#550000;stroke-width:0.93142861;stroke-linecap:round;stroke-linejoin:round;stroke-miterlimit:4;stroke-dasharray:none;stroke-dashoffset:0;stroke-opacity:1" />
        <rect
           style="fill:#d40000;fill-opacity:1;stroke:#550000;stroke-width:0.93142861;stroke-linecap:round;stroke-linejoin:round;stroke-miterlimit:4;stroke-dasharray:none;stroke-dashoffset:0;stroke-opacity:1"
           id="rect4980"
           width="116.24633"
           height="5.8208508"
           x="76.133636"
           y="82.257683" />
        <rect
           y="93.434853"
           x="76.133636"
           height="5.8208508"
           width="116.24633"
           id="rect4982"
           style="fill:#d40000;fill-opacity:1;stroke:#550000;stroke-width:0.93142861;stroke-linecap:round;stroke-linejoin:round;stroke-miterlimit:4;stroke-dasharray:none;stroke-dashoffset:0;stroke-opacity:1" />
      </g>
      <g
         transform="matrix(0.28405894,0.00128839,-0.00128839,0.28405894,49.890512,173.12172)"
         id="g4986"
         style="display:inline">
        <path
           sodipodi:type="star"
           style="fill:#ffffff;fill-opacity:1;stroke:none"
           id="path4988"
           sodipodi:sides="5"
           sodipodi:cx="551.89685"
           sodipodi:cy="47.590538"
           sodipodi:r1="4.7169905"
           sodipodi:r2="2.3584952"
           sodipodi:arg1="-0.26179939"
           sodipodi:arg2="0.36651914"
           inkscape:flatsided="false"
           inkscape:rounded="0"
           inkscape:randomized="0"
           d="m 556.45311,46.369691 -2.35441,2.066056 0.36721,3.110792 -2.69249,-1.600738 -2.84507,1.310527 0.69037,-3.055366 -2.12556,-2.300842 3.11916,-0.287583 1.5314,-2.732525 1.23738,2.877631 z"
           transform="matrix(0.37681082,-0.02165148,0.02165148,0.37681082,-128.31551,23.754038)"
           inkscape:transform-center-x="0.0029681018"
           inkscape:transform-center-y="-0.17969533" />
        <path
           inkscape:transform-center-y="-0.17969533"
           inkscape:transform-center-x="0.0029681018"
           transform="matrix(0.37681082,-0.02165148,0.02165148,0.37681082,-121.60921,23.754038)"
           d="m 556.45311,46.369691 -2.35441,2.066056 0.36721,3.110792 -2.69249,-1.600738 -2.84507,1.310527 0.69037,-3.055366 -2.12556,-2.300842 3.11916,-0.287583 1.5314,-2.732525 1.23738,2.877631 z"
           inkscape:randomized="0"
           inkscape:rounded="0"
           inkscape:flatsided="false"
           sodipodi:arg2="0.36651914"
           sodipodi:arg1="-0.26179939"
           sodipodi:r2="2.3584952"
           sodipodi:r1="4.7169905"
           sodipodi:cy="47.590538"
           sodipodi:cx="551.89685"
           sodipodi:sides="5"
           id="use4990"
           style="fill:#ffffff;fill-opacity:1;stroke:none"
           sodipodi:type="star" />
        <path
           inkscape:transform-center-y="-0.17969533"
           inkscape:transform-center-x="0.0029681018"
           transform="matrix(0.37681082,-0.02165148,0.02165148,0.37681082,-114.90292,23.754038)"
           d="m 556.45311,46.369691 -2.35441,2.066056 0.36721,3.110792 -2.69249,-1.600738 -2.84507,1.310527 0.69037,-3.055366 -2.12556,-2.300842 3.11916,-0.287583 1.5314,-2.732525 1.23738,2.877631 z"
           inkscape:randomized="0"
           inkscape:rounded="0"
           inkscape:flatsided="false"
           sodipodi:arg2="0.36651914"
           sodipodi:arg1="-0.26179939"
           sodipodi:r2="2.3584952"
           sodipodi:r1="4.7169905"
           sodipodi:cy="47.590538"
           sodipodi:cx="551.89685"
           sodipodi:sides="5"
           id="use4992"
           style="fill:#ffffff;fill-opacity:1;stroke:none"
           sodipodi:type="star" />
        <path
           inkscape:transform-center-y="-0.17969533"
           inkscape:transform-center-x="0.0029681018"
           transform="matrix(0.37681082,-0.02165148,0.02165148,0.37681082,-108.19662,23.754038)"
           d="m 556.45311,46.369691 -2.35441,2.066056 0.36721,3.110792 -2.69249,-1.600738 -2.84507,1.310527 0.69037,-3.055366 -2.12556,-2.300842 3.11916,-0.287583 1.5314,-2.732525 1.23738,2.877631 z"
           inkscape:randomized="0"
           inkscape:rounded="0"
           inkscape:flatsided="false"
           sodipodi:arg2="0.36651914"
           sodipodi:arg1="-0.26179939"
           sodipodi:r2="2.3584952"
           sodipodi:r1="4.7169905"
           sodipodi:cy="47.590538"
           sodipodi:cx="551.89685"
           sodipodi:sides="5"
           id="use4994"
           style="fill:#ffffff;fill-opacity:1;stroke:none"
           sodipodi:type="star" />
        <path
           inkscape:transform-center-y="-0.17969533"
           inkscape:transform-center-x="0.0029681018"
           transform="matrix(0.37681082,-0.02165148,0.02165148,0.37681082,-101.49032,23.754038)"
           d="m 556.45311,46.369691 -2.35441,2.066056 0.36721,3.110792 -2.69249,-1.600738 -2.84507,1.310527 0.69037,-3.055366 -2.12556,-2.300842 3.11916,-0.287583 1.5314,-2.732525 1.23738,2.877631 z"
           inkscape:randomized="0"
           inkscape:rounded="0"
           inkscape:flatsided="false"
           sodipodi:arg2="0.36651914"
           sodipodi:arg1="-0.26179939"
           sodipodi:r2="2.3584952"
           sodipodi:r1="4.7169905"
           sodipodi:cy="47.590538"
           sodipodi:cx="551.89685"
           sodipodi:sides="5"
           id="use4996"
           style="fill:#ffffff;fill-opacity:1;stroke:none"
           sodipodi:type="star" />
        <path
           inkscape:transform-center-y="-0.17969533"
           inkscape:transform-center-x="0.0029681018"
           transform="matrix(0.37681082,-0.02165148,0.02165148,0.37681082,-94.784024,23.754038)"
           d="m 556.45311,46.369691 -2.35441,2.066056 0.36721,3.110792 -2.69249,-1.600738 -2.84507,1.310527 0.69037,-3.055366 -2.12556,-2.300842 3.11916,-0.287583 1.5314,-2.732525 1.23738,2.877631 z"
           inkscape:randomized="0"
           inkscape:rounded="0"
           inkscape:flatsided="false"
           sodipodi:arg2="0.36651914"
           sodipodi:arg1="-0.26179939"
           sodipodi:r2="2.3584952"
           sodipodi:r1="4.7169905"
           sodipodi:cy="47.590538"
           sodipodi:cx="551.89685"
           sodipodi:sides="5"
           id="use4998"
           style="fill:#ffffff;fill-opacity:1;stroke:none"
           sodipodi:type="star" />
        <path
           inkscape:transform-center-y="-0.17969533"
           inkscape:transform-center-x="0.0029681018"
           transform="matrix(0.37681082,-0.02165148,0.02165148,0.37681082,-125.17029,27.809062)"
           d="m 556.45311,46.369691 -2.35441,2.066056 0.36721,3.110792 -2.69249,-1.600738 -2.84507,1.310527 0.69037,-3.055366 -2.12556,-2.300842 3.11916,-0.287583 1.5314,-2.732525 1.23738,2.877631 z"
           inkscape:randomized="0"
           inkscape:rounded="0"
           inkscape:flatsided="false"
           sodipodi:arg2="0.36651914"
           sodipodi:arg1="-0.26179939"
           sodipodi:r2="2.3584952"
           sodipodi:r1="4.7169905"
           sodipodi:cy="47.590538"
           sodipodi:cx="551.89685"
           sodipodi:sides="5"
           id="use5000"
           style="fill:#ffffff;fill-opacity:1;stroke:none"
           sodipodi:type="star" />
        <path
           inkscape:transform-center-y="-0.17969533"
           inkscape:transform-center-x="0.0029681018"
           transform="matrix(0.37681082,-0.02165148,0.02165148,0.37681082,-118.41095,27.809062)"
           d="m 556.45311,46.369691 -2.35441,2.066056 0.36721,3.110792 -2.69249,-1.600738 -2.84507,1.310527 0.69037,-3.055366 -2.12556,-2.300842 3.11916,-0.287583 1.5314,-2.732525 1.23738,2.877631 z"
           inkscape:randomized="0"
           inkscape:rounded="0"
           inkscape:flatsided="false"
           sodipodi:arg2="0.36651914"
           sodipodi:arg1="-0.26179939"
           sodipodi:r2="2.3584952"
           sodipodi:r1="4.7169905"
           sodipodi:cy="47.590538"
           sodipodi:cx="551.89685"
           sodipodi:sides="5"
           id="use5002"
           style="fill:#ffffff;fill-opacity:1;stroke:none"
           sodipodi:type="star" />
        <path
           inkscape:transform-center-y="-0.17969533"
           inkscape:transform-center-x="0.0029681018"
           transform="matrix(0.37681082,-0.02165148,0.02165148,0.37681082,-111.65162,27.809062)"
           d="m 556.45311,46.369691 -2.35441,2.066056 0.36721,3.110792 -2.69249,-1.600738 -2.84507,1.310527 0.69037,-3.055366 -2.12556,-2.300842 3.11916,-0.287583 1.5314,-2.732525 1.23738,2.877631 z"
           inkscape:randomized="0"
           inkscape:rounded="0"
           inkscape:flatsided="false"
           sodipodi:arg2="0.36651914"
           sodipodi:arg1="-0.26179939"
           sodipodi:r2="2.3584952"
           sodipodi:r1="4.7169905"
           sodipodi:cy="47.590538"
           sodipodi:cx="551.89685"
           sodipodi:sides="5"
           id="use5004"
           style="fill:#ffffff;fill-opacity:1;stroke:none"
           sodipodi:type="star" />
        <path
           inkscape:transform-center-y="-0.17969533"
           inkscape:transform-center-x="0.0029681018"
           transform="matrix(0.37681082,-0.02165148,0.02165148,0.37681082,-104.89228,27.809062)"
           d="m 556.45311,46.369691 -2.35441,2.066056 0.36721,3.110792 -2.69249,-1.600738 -2.84507,1.310527 0.69037,-3.055366 -2.12556,-2.300842 3.11916,-0.287583 1.5314,-2.732525 1.23738,2.877631 z"
           inkscape:randomized="0"
           inkscape:rounded="0"
           inkscape:flatsided="false"
           sodipodi:arg2="0.36651914"
           sodipodi:arg1="-0.26179939"
           sodipodi:r2="2.3584952"
           sodipodi:r1="4.7169905"
           sodipodi:cy="47.590538"
           sodipodi:cx="551.89685"
           sodipodi:sides="5"
           id="use5006"
           style="fill:#ffffff;fill-opacity:1;stroke:none"
           sodipodi:type="star" />
        <path
           inkscape:transform-center-y="-0.17969533"
           inkscape:transform-center-x="0.0029681018"
           transform="matrix(0.37681082,-0.02165148,0.02165148,0.37681082,-98.13294,27.809062)"
           d="m 556.45311,46.369691 -2.35441,2.066056 0.36721,3.110792 -2.69249,-1.600738 -2.84507,1.310527 0.69037,-3.055366 -2.12556,-2.300842 3.11916,-0.287583 1.5314,-2.732525 1.23738,2.877631 z"
           inkscape:randomized="0"
           inkscape:rounded="0"
           inkscape:flatsided="false"
           sodipodi:arg2="0.36651914"
           sodipodi:arg1="-0.26179939"
           sodipodi:r2="2.3584952"
           sodipodi:r1="4.7169905"
           sodipodi:cy="47.590538"
           sodipodi:cx="551.89685"
           sodipodi:sides="5"
           id="use5008"
           style="fill:#ffffff;fill-opacity:1;stroke:none"
           sodipodi:type="star" />
        <path
           inkscape:transform-center-y="-0.17969533"
           inkscape:transform-center-x="0.0029681018"
           transform="matrix(0.37681082,-0.02165148,0.02165148,0.37681082,-121.60921,31.699431)"
           d="m 556.45311,46.369691 -2.35441,2.066056 0.36721,3.110792 -2.69249,-1.600738 -2.84507,1.310527 0.69037,-3.055366 -2.12556,-2.300842 3.11916,-0.287583 1.5314,-2.732525 1.23738,2.877631 z"
           inkscape:randomized="0"
           inkscape:rounded="0"
           inkscape:flatsided="false"
           sodipodi:arg2="0.36651914"
           sodipodi:arg1="-0.26179939"
           sodipodi:r2="2.3584952"
           sodipodi:r1="4.7169905"
           sodipodi:cy="47.590538"
           sodipodi:cx="551.89685"
           sodipodi:sides="5"
           id="use5010"
           style="fill:#ffffff;fill-opacity:1;stroke:none"
           sodipodi:type="star" />
        <path
           inkscape:transform-center-y="-0.17969533"
           inkscape:transform-center-x="0.0029681018"
           transform="matrix(0.37681082,-0.02165148,0.02165148,0.37681082,-114.90292,31.699431)"
           d="m 556.45311,46.369691 -2.35441,2.066056 0.36721,3.110792 -2.69249,-1.600738 -2.84507,1.310527 0.69037,-3.055366 -2.12556,-2.300842 3.11916,-0.287583 1.5314,-2.732525 1.23738,2.877631 z"
           inkscape:randomized="0"
           inkscape:rounded="0"
           inkscape:flatsided="false"
           sodipodi:arg2="0.36651914"
           sodipodi:arg1="-0.26179939"
           sodipodi:r2="2.3584952"
           sodipodi:r1="4.7169905"
           sodipodi:cy="47.590538"
           sodipodi:cx="551.89685"
           sodipodi:sides="5"
           id="use5012"
           style="fill:#ffffff;fill-opacity:1;stroke:none"
           sodipodi:type="star" />
        <path
           inkscape:transform-center-y="-0.17969533"
           inkscape:transform-center-x="0.0029681018"
           transform="matrix(0.37681082,-0.02165148,0.02165148,0.37681082,-108.19662,31.699431)"
           d="m 556.45311,46.369691 -2.35441,2.066056 0.36721,3.110792 -2.69249,-1.600738 -2.84507,1.310527 0.69037,-3.055366 -2.12556,-2.300842 3.11916,-0.287583 1.5314,-2.732525 1.23738,2.877631 z"
           inkscape:randomized="0"
           inkscape:rounded="0"
           inkscape:flatsided="false"
           sodipodi:arg2="0.36651914"
           sodipodi:arg1="-0.26179939"
           sodipodi:r2="2.3584952"
           sodipodi:r1="4.7169905"
           sodipodi:cy="47.590538"
           sodipodi:cx="551.89685"
           sodipodi:sides="5"
           id="use5014"
           style="fill:#ffffff;fill-opacity:1;stroke:none"
           sodipodi:type="star" />
        <path
           inkscape:transform-center-y="-0.17969533"
           inkscape:transform-center-x="0.0029681018"
           transform="matrix(0.37681082,-0.02165148,0.02165148,0.37681082,-101.49032,31.699431)"
           d="m 556.45311,46.369691 -2.35441,2.066056 0.36721,3.110792 -2.69249,-1.600738 -2.84507,1.310527 0.69037,-3.055366 -2.12556,-2.300842 3.11916,-0.287583 1.5314,-2.732525 1.23738,2.877631 z"
           inkscape:randomized="0"
           inkscape:rounded="0"
           inkscape:flatsided="false"
           sodipodi:arg2="0.36651914"
           sodipodi:arg1="-0.26179939"
           sodipodi:r2="2.3584952"
           sodipodi:r1="4.7169905"
           sodipodi:cy="47.590538"
           sodipodi:cx="551.89685"
           sodipodi:sides="5"
           id="use5016"
           style="fill:#ffffff;fill-opacity:1;stroke:none"
           sodipodi:type="star" />
        <path
           inkscape:transform-center-y="-0.17969533"
           inkscape:transform-center-x="0.0029681018"
           transform="matrix(0.37681082,-0.02165148,0.02165148,0.37681082,-94.784024,31.699431)"
           d="m 556.45311,46.369691 -2.35441,2.066056 0.36721,3.110792 -2.69249,-1.600738 -2.84507,1.310527 0.69037,-3.055366 -2.12556,-2.300842 3.11916,-0.287583 1.5314,-2.732525 1.23738,2.877631 z"
           inkscape:randomized="0"
           inkscape:rounded="0"
           inkscape:flatsided="false"
           sodipodi:arg2="0.36651914"
           sodipodi:arg1="-0.26179939"
           sodipodi:r2="2.3584952"
           sodipodi:r1="4.7169905"
           sodipodi:cy="47.590538"
           sodipodi:cx="551.89685"
           sodipodi:sides="5"
           id="use5018"
           style="fill:#ffffff;fill-opacity:1;stroke:none"
           sodipodi:type="star" />
        <path
           inkscape:transform-center-y="-0.17969533"
           inkscape:transform-center-x="0.0029681018"
           transform="matrix(0.37681082,-0.02165148,0.02165148,0.37681082,-128.31551,31.699431)"
           d="m 556.45311,46.369691 -2.35441,2.066056 0.36721,3.110792 -2.69249,-1.600738 -2.84507,1.310527 0.69037,-3.055366 -2.12556,-2.300842 3.11916,-0.287583 1.5314,-2.732525 1.23738,2.877631 z"
           inkscape:randomized="0"
           inkscape:rounded="0"
           inkscape:flatsided="false"
           sodipodi:arg2="0.36651914"
           sodipodi:arg1="-0.26179939"
           sodipodi:r2="2.3584952"
           sodipodi:r1="4.7169905"
           sodipodi:cy="47.590538"
           sodipodi:cx="551.89685"
           sodipodi:sides="5"
           id="use5020"
           style="fill:#ffffff;fill-opacity:1;stroke:none"
           sodipodi:type="star" />
        <path
           inkscape:transform-center-y="-0.17969533"
           inkscape:transform-center-x="0.0029681018"
           transform="matrix(0.37681082,-0.02165148,0.02165148,0.37681082,-125.17029,35.589796)"
           d="m 556.45311,46.369691 -2.35441,2.066056 0.36721,3.110792 -2.69249,-1.600738 -2.84507,1.310527 0.69037,-3.055366 -2.12556,-2.300842 3.11916,-0.287583 1.5314,-2.732525 1.23738,2.877631 z"
           inkscape:randomized="0"
           inkscape:rounded="0"
           inkscape:flatsided="false"
           sodipodi:arg2="0.36651914"
           sodipodi:arg1="-0.26179939"
           sodipodi:r2="2.3584952"
           sodipodi:r1="4.7169905"
           sodipodi:cy="47.590538"
           sodipodi:cx="551.89685"
           sodipodi:sides="5"
           id="use5022"
           style="fill:#ffffff;fill-opacity:1;stroke:none"
           sodipodi:type="star" />
        <path
           inkscape:transform-center-y="-0.17969533"
           inkscape:transform-center-x="0.0029681018"
           transform="matrix(0.37681082,-0.02165148,0.02165148,0.37681082,-118.41095,35.589796)"
           d="m 556.45311,46.369691 -2.35441,2.066056 0.36721,3.110792 -2.69249,-1.600738 -2.84507,1.310527 0.69037,-3.055366 -2.12556,-2.300842 3.11916,-0.287583 1.5314,-2.732525 1.23738,2.877631 z"
           inkscape:randomized="0"
           inkscape:rounded="0"
           inkscape:flatsided="false"
           sodipodi:arg2="0.36651914"
           sodipodi:arg1="-0.26179939"
           sodipodi:r2="2.3584952"
           sodipodi:r1="4.7169905"
           sodipodi:cy="47.590538"
           sodipodi:cx="551.89685"
           sodipodi:sides="5"
           id="use5024"
           style="fill:#ffffff;fill-opacity:1;stroke:none"
           sodipodi:type="star" />
        <path
           inkscape:transform-center-y="-0.17969533"
           inkscape:transform-center-x="0.0029681018"
           transform="matrix(0.37681082,-0.02165148,0.02165148,0.37681082,-111.65162,35.589796)"
           d="m 556.45311,46.369691 -2.35441,2.066056 0.36721,3.110792 -2.69249,-1.600738 -2.84507,1.310527 0.69037,-3.055366 -2.12556,-2.300842 3.11916,-0.287583 1.5314,-2.732525 1.23738,2.877631 z"
           inkscape:randomized="0"
           inkscape:rounded="0"
           inkscape:flatsided="false"
           sodipodi:arg2="0.36651914"
           sodipodi:arg1="-0.26179939"
           sodipodi:r2="2.3584952"
           sodipodi:r1="4.7169905"
           sodipodi:cy="47.590538"
           sodipodi:cx="551.89685"
           sodipodi:sides="5"
           id="use5026"
           style="fill:#ffffff;fill-opacity:1;stroke:none"
           sodipodi:type="star" />
        <path
           inkscape:transform-center-y="-0.17969533"
           inkscape:transform-center-x="0.0029681018"
           transform="matrix(0.37681082,-0.02165148,0.02165148,0.37681082,-104.89228,35.589796)"
           d="m 556.45311,46.369691 -2.35441,2.066056 0.36721,3.110792 -2.69249,-1.600738 -2.84507,1.310527 0.69037,-3.055366 -2.12556,-2.300842 3.11916,-0.287583 1.5314,-2.732525 1.23738,2.877631 z"
           inkscape:randomized="0"
           inkscape:rounded="0"
           inkscape:flatsided="false"
           sodipodi:arg2="0.36651914"
           sodipodi:arg1="-0.26179939"
           sodipodi:r2="2.3584952"
           sodipodi:r1="4.7169905"
           sodipodi:cy="47.590538"
           sodipodi:cx="551.89685"
           sodipodi:sides="5"
           id="use5028"
           style="fill:#ffffff;fill-opacity:1;stroke:none"
           sodipodi:type="star" />
        <path
           inkscape:transform-center-y="-0.17969533"
           inkscape:transform-center-x="0.0029681018"
           transform="matrix(0.37681082,-0.02165148,0.02165148,0.37681082,-98.13294,35.589796)"
           d="m 556.45311,46.369691 -2.35441,2.066056 0.36721,3.110792 -2.69249,-1.600738 -2.84507,1.310527 0.69037,-3.055366 -2.12556,-2.300842 3.11916,-0.287583 1.5314,-2.732525 1.23738,2.877631 z"
           inkscape:randomized="0"
           inkscape:rounded="0"
           inkscape:flatsided="false"
           sodipodi:arg2="0.36651914"
           sodipodi:arg1="-0.26179939"
           sodipodi:r2="2.3584952"
           sodipodi:r1="4.7169905"
           sodipodi:cy="47.590538"
           sodipodi:cx="551.89685"
           sodipodi:sides="5"
           id="use5030"
           style="fill:#ffffff;fill-opacity:1;stroke:none"
           sodipodi:type="star" />
        <path
           inkscape:transform-center-y="-0.17969533"
           inkscape:transform-center-x="0.0029681018"
           transform="matrix(0.37681082,-0.02165148,0.02165148,0.37681082,-121.60921,39.480165)"
           d="m 556.45311,46.369691 -2.35441,2.066056 0.36721,3.110792 -2.69249,-1.600738 -2.84507,1.310527 0.69037,-3.055366 -2.12556,-2.300842 3.11916,-0.287583 1.5314,-2.732525 1.23738,2.877631 z"
           inkscape:randomized="0"
           inkscape:rounded="0"
           inkscape:flatsided="false"
           sodipodi:arg2="0.36651914"
           sodipodi:arg1="-0.26179939"
           sodipodi:r2="2.3584952"
           sodipodi:r1="4.7169905"
           sodipodi:cy="47.590538"
           sodipodi:cx="551.89685"
           sodipodi:sides="5"
           id="use5032"
           style="fill:#ffffff;fill-opacity:1;stroke:none"
           sodipodi:type="star" />
        <path
           inkscape:transform-center-y="-0.17969533"
           inkscape:transform-center-x="0.0029681018"
           transform="matrix(0.37681082,-0.02165148,0.02165148,0.37681082,-114.90292,39.480165)"
           d="m 556.45311,46.369691 -2.35441,2.066056 0.36721,3.110792 -2.69249,-1.600738 -2.84507,1.310527 0.69037,-3.055366 -2.12556,-2.300842 3.11916,-0.287583 1.5314,-2.732525 1.23738,2.877631 z"
           inkscape:randomized="0"
           inkscape:rounded="0"
           inkscape:flatsided="false"
           sodipodi:arg2="0.36651914"
           sodipodi:arg1="-0.26179939"
           sodipodi:r2="2.3584952"
           sodipodi:r1="4.7169905"
           sodipodi:cy="47.590538"
           sodipodi:cx="551.89685"
           sodipodi:sides="5"
           id="use5034"
           style="fill:#ffffff;fill-opacity:1;stroke:none"
           sodipodi:type="star" />
        <path
           inkscape:transform-center-y="-0.17969533"
           inkscape:transform-center-x="0.0029681018"
           transform="matrix(0.37681082,-0.02165148,0.02165148,0.37681082,-108.19662,39.480165)"
           d="m 556.45311,46.369691 -2.35441,2.066056 0.36721,3.110792 -2.69249,-1.600738 -2.84507,1.310527 0.69037,-3.055366 -2.12556,-2.300842 3.11916,-0.287583 1.5314,-2.732525 1.23738,2.877631 z"
           inkscape:randomized="0"
           inkscape:rounded="0"
           inkscape:flatsided="false"
           sodipodi:arg2="0.36651914"
           sodipodi:arg1="-0.26179939"
           sodipodi:r2="2.3584952"
           sodipodi:r1="4.7169905"
           sodipodi:cy="47.590538"
           sodipodi:cx="551.89685"
           sodipodi:sides="5"
           id="use5036"
           style="fill:#ffffff;fill-opacity:1;stroke:none"
           sodipodi:type="star" />
        <path
           inkscape:transform-center-y="-0.17969533"
           inkscape:transform-center-x="0.0029681018"
           transform="matrix(0.37681082,-0.02165148,0.02165148,0.37681082,-101.49032,39.480165)"
           d="m 556.45311,46.369691 -2.35441,2.066056 0.36721,3.110792 -2.69249,-1.600738 -2.84507,1.310527 0.69037,-3.055366 -2.12556,-2.300842 3.11916,-0.287583 1.5314,-2.732525 1.23738,2.877631 z"
           inkscape:randomized="0"
           inkscape:rounded="0"
           inkscape:flatsided="false"
           sodipodi:arg2="0.36651914"
           sodipodi:arg1="-0.26179939"
           sodipodi:r2="2.3584952"
           sodipodi:r1="4.7169905"
           sodipodi:cy="47.590538"
           sodipodi:cx="551.89685"
           sodipodi:sides="5"
           id="use5038"
           style="fill:#ffffff;fill-opacity:1;stroke:none"
           sodipodi:type="star" />
        <path
           inkscape:transform-center-y="-0.17969533"
           inkscape:transform-center-x="0.0029681018"
           transform="matrix(0.37681082,-0.02165148,0.02165148,0.37681082,-94.784024,39.480165)"
           d="m 556.45311,46.369691 -2.35441,2.066056 0.36721,3.110792 -2.69249,-1.600738 -2.84507,1.310527 0.69037,-3.055366 -2.12556,-2.300842 3.11916,-0.287583 1.5314,-2.732525 1.23738,2.877631 z"
           inkscape:randomized="0"
           inkscape:rounded="0"
           inkscape:flatsided="false"
           sodipodi:arg2="0.36651914"
           sodipodi:arg1="-0.26179939"
           sodipodi:r2="2.3584952"
           sodipodi:r1="4.7169905"
           sodipodi:cy="47.590538"
           sodipodi:cx="551.89685"
           sodipodi:sides="5"
           id="use5040"
           style="fill:#ffffff;fill-opacity:1;stroke:none"
           sodipodi:type="star" />
        <path
           inkscape:transform-center-y="-0.17969533"
           inkscape:transform-center-x="0.0029681018"
           transform="matrix(0.37681082,-0.02165148,0.02165148,0.37681082,-128.31551,39.480165)"
           d="m 556.45311,46.369691 -2.35441,2.066056 0.36721,3.110792 -2.69249,-1.600738 -2.84507,1.310527 0.69037,-3.055366 -2.12556,-2.300842 3.11916,-0.287583 1.5314,-2.732525 1.23738,2.877631 z"
           inkscape:randomized="0"
           inkscape:rounded="0"
           inkscape:flatsided="false"
           sodipodi:arg2="0.36651914"
           sodipodi:arg1="-0.26179939"
           sodipodi:r2="2.3584952"
           sodipodi:r1="4.7169905"
           sodipodi:cy="47.590538"
           sodipodi:cx="551.89685"
           sodipodi:sides="5"
           id="use5042"
           style="fill:#ffffff;fill-opacity:1;stroke:none"
           sodipodi:type="star" />
        <path
           inkscape:transform-center-y="-0.17969533"
           inkscape:transform-center-x="0.0029681018"
           transform="matrix(0.37681082,-0.02165148,0.02165148,0.37681082,-125.17029,43.370532)"
           d="m 556.45311,46.369691 -2.35441,2.066056 0.36721,3.110792 -2.69249,-1.600738 -2.84507,1.310527 0.69037,-3.055366 -2.12556,-2.300842 3.11916,-0.287583 1.5314,-2.732525 1.23738,2.877631 z"
           inkscape:randomized="0"
           inkscape:rounded="0"
           inkscape:flatsided="false"
           sodipodi:arg2="0.36651914"
           sodipodi:arg1="-0.26179939"
           sodipodi:r2="2.3584952"
           sodipodi:r1="4.7169905"
           sodipodi:cy="47.590538"
           sodipodi:cx="551.89685"
           sodipodi:sides="5"
           id="use5044"
           style="fill:#ffffff;fill-opacity:1;stroke:none"
           sodipodi:type="star" />
        <path
           inkscape:transform-center-y="-0.17969533"
           inkscape:transform-center-x="0.0029681018"
           transform="matrix(0.37681082,-0.02165148,0.02165148,0.37681082,-118.41095,43.370532)"
           d="m 556.45311,46.369691 -2.35441,2.066056 0.36721,3.110792 -2.69249,-1.600738 -2.84507,1.310527 0.69037,-3.055366 -2.12556,-2.300842 3.11916,-0.287583 1.5314,-2.732525 1.23738,2.877631 z"
           inkscape:randomized="0"
           inkscape:rounded="0"
           inkscape:flatsided="false"
           sodipodi:arg2="0.36651914"
           sodipodi:arg1="-0.26179939"
           sodipodi:r2="2.3584952"
           sodipodi:r1="4.7169905"
           sodipodi:cy="47.590538"
           sodipodi:cx="551.89685"
           sodipodi:sides="5"
           id="use5046"
           style="fill:#ffffff;fill-opacity:1;stroke:none"
           sodipodi:type="star" />
        <path
           inkscape:transform-center-y="-0.17969533"
           inkscape:transform-center-x="0.0029681018"
           transform="matrix(0.37681082,-0.02165148,0.02165148,0.37681082,-111.65162,43.370532)"
           d="m 556.45311,46.369691 -2.35441,2.066056 0.36721,3.110792 -2.69249,-1.600738 -2.84507,1.310527 0.69037,-3.055366 -2.12556,-2.300842 3.11916,-0.287583 1.5314,-2.732525 1.23738,2.877631 z"
           inkscape:randomized="0"
           inkscape:rounded="0"
           inkscape:flatsided="false"
           sodipodi:arg2="0.36651914"
           sodipodi:arg1="-0.26179939"
           sodipodi:r2="2.3584952"
           sodipodi:r1="4.7169905"
           sodipodi:cy="47.590538"
           sodipodi:cx="551.89685"
           sodipodi:sides="5"
           id="use5048"
           style="fill:#ffffff;fill-opacity:1;stroke:none"
           sodipodi:type="star" />
        <path
           inkscape:transform-center-y="-0.17969533"
           inkscape:transform-center-x="0.0029681018"
           transform="matrix(0.37681082,-0.02165148,0.02165148,0.37681082,-104.89228,43.370532)"
           d="m 556.45311,46.369691 -2.35441,2.066056 0.36721,3.110792 -2.69249,-1.600738 -2.84507,1.310527 0.69037,-3.055366 -2.12556,-2.300842 3.11916,-0.287583 1.5314,-2.732525 1.23738,2.877631 z"
           inkscape:randomized="0"
           inkscape:rounded="0"
           inkscape:flatsided="false"
           sodipodi:arg2="0.36651914"
           sodipodi:arg1="-0.26179939"
           sodipodi:r2="2.3584952"
           sodipodi:r1="4.7169905"
           sodipodi:cy="47.590538"
           sodipodi:cx="551.89685"
           sodipodi:sides="5"
           id="use5050"
           style="fill:#ffffff;fill-opacity:1;stroke:none"
           sodipodi:type="star" />
        <path
           inkscape:transform-center-y="-0.17969533"
           inkscape:transform-center-x="0.0029681018"
           transform="matrix(0.37681082,-0.02165148,0.02165148,0.37681082,-98.13294,43.370532)"
           d="m 556.45311,46.369691 -2.35441,2.066056 0.36721,3.110792 -2.69249,-1.600738 -2.84507,1.310527 0.69037,-3.055366 -2.12556,-2.300842 3.11916,-0.287583 1.5314,-2.732525 1.23738,2.877631 z"
           inkscape:randomized="0"
           inkscape:rounded="0"
           inkscape:flatsided="false"
           sodipodi:arg2="0.36651914"
           sodipodi:arg1="-0.26179939"
           sodipodi:r2="2.3584952"
           sodipodi:r1="4.7169905"
           sodipodi:cy="47.590538"
           sodipodi:cx="551.89685"
           sodipodi:sides="5"
           id="use5052"
           style="fill:#ffffff;fill-opacity:1;stroke:none"
           sodipodi:type="star" />
        <path
           inkscape:transform-center-y="-0.17969533"
           inkscape:transform-center-x="0.0029681018"
           transform="matrix(0.37681082,-0.02165148,0.02165148,0.37681082,-121.60921,47.260901)"
           d="m 556.45311,46.369691 -2.35441,2.066056 0.36721,3.110792 -2.69249,-1.600738 -2.84507,1.310527 0.69037,-3.055366 -2.12556,-2.300842 3.11916,-0.287583 1.5314,-2.732525 1.23738,2.877631 z"
           inkscape:randomized="0"
           inkscape:rounded="0"
           inkscape:flatsided="false"
           sodipodi:arg2="0.36651914"
           sodipodi:arg1="-0.26179939"
           sodipodi:r2="2.3584952"
           sodipodi:r1="4.7169905"
           sodipodi:cy="47.590538"
           sodipodi:cx="551.89685"
           sodipodi:sides="5"
           id="use5054"
           style="fill:#ffffff;fill-opacity:1;stroke:none"
           sodipodi:type="star" />
        <path
           inkscape:transform-center-y="-0.17969533"
           inkscape:transform-center-x="0.0029681018"
           transform="matrix(0.37681082,-0.02165148,0.02165148,0.37681082,-114.90292,47.260901)"
           d="m 556.45311,46.369691 -2.35441,2.066056 0.36721,3.110792 -2.69249,-1.600738 -2.84507,1.310527 0.69037,-3.055366 -2.12556,-2.300842 3.11916,-0.287583 1.5314,-2.732525 1.23738,2.877631 z"
           inkscape:randomized="0"
           inkscape:rounded="0"
           inkscape:flatsided="false"
           sodipodi:arg2="0.36651914"
           sodipodi:arg1="-0.26179939"
           sodipodi:r2="2.3584952"
           sodipodi:r1="4.7169905"
           sodipodi:cy="47.590538"
           sodipodi:cx="551.89685"
           sodipodi:sides="5"
           id="use5056"
           style="fill:#ffffff;fill-opacity:1;stroke:none"
           sodipodi:type="star" />
        <path
           inkscape:transform-center-y="-0.17969533"
           inkscape:transform-center-x="0.0029681018"
           transform="matrix(0.37681082,-0.02165148,0.02165148,0.37681082,-108.19662,47.260901)"
           d="m 556.45311,46.369691 -2.35441,2.066056 0.36721,3.110792 -2.69249,-1.600738 -2.84507,1.310527 0.69037,-3.055366 -2.12556,-2.300842 3.11916,-0.287583 1.5314,-2.732525 1.23738,2.877631 z"
           inkscape:randomized="0"
           inkscape:rounded="0"
           inkscape:flatsided="false"
           sodipodi:arg2="0.36651914"
           sodipodi:arg1="-0.26179939"
           sodipodi:r2="2.3584952"
           sodipodi:r1="4.7169905"
           sodipodi:cy="47.590538"
           sodipodi:cx="551.89685"
           sodipodi:sides="5"
           id="use5058"
           style="fill:#ffffff;fill-opacity:1;stroke:none"
           sodipodi:type="star" />
        <path
           inkscape:transform-center-y="-0.17969533"
           inkscape:transform-center-x="0.0029681018"
           transform="matrix(0.37681082,-0.02165148,0.02165148,0.37681082,-101.49032,47.260901)"
           d="m 556.45311,46.369691 -2.35441,2.066056 0.36721,3.110792 -2.69249,-1.600738 -2.84507,1.310527 0.69037,-3.055366 -2.12556,-2.300842 3.11916,-0.287583 1.5314,-2.732525 1.23738,2.877631 z"
           inkscape:randomized="0"
           inkscape:rounded="0"
           inkscape:flatsided="false"
           sodipodi:arg2="0.36651914"
           sodipodi:arg1="-0.26179939"
           sodipodi:r2="2.3584952"
           sodipodi:r1="4.7169905"
           sodipodi:cy="47.590538"
           sodipodi:cx="551.89685"
           sodipodi:sides="5"
           id="use5060"
           style="fill:#ffffff;fill-opacity:1;stroke:none"
           sodipodi:type="star" />
        <path
           inkscape:transform-center-y="-0.17969533"
           inkscape:transform-center-x="0.0029681018"
           transform="matrix(0.37681082,-0.02165148,0.02165148,0.37681082,-94.784024,47.260901)"
           d="m 556.45311,46.369691 -2.35441,2.066056 0.36721,3.110792 -2.69249,-1.600738 -2.84507,1.310527 0.69037,-3.055366 -2.12556,-2.300842 3.11916,-0.287583 1.5314,-2.732525 1.23738,2.877631 z"
           inkscape:randomized="0"
           inkscape:rounded="0"
           inkscape:flatsided="false"
           sodipodi:arg2="0.36651914"
           sodipodi:arg1="-0.26179939"
           sodipodi:r2="2.3584952"
           sodipodi:r1="4.7169905"
           sodipodi:cy="47.590538"
           sodipodi:cx="551.89685"
           sodipodi:sides="5"
           id="use5062"
           style="fill:#ffffff;fill-opacity:1;stroke:none"
           sodipodi:type="star" />
        <path
           inkscape:transform-center-y="-0.17969533"
           inkscape:transform-center-x="0.0029681018"
           transform="matrix(0.37681082,-0.02165148,0.02165148,0.37681082,-128.31551,47.260901)"
           d="m 556.45311,46.369691 -2.35441,2.066056 0.36721,3.110792 -2.69249,-1.600738 -2.84507,1.310527 0.69037,-3.055366 -2.12556,-2.300842 3.11916,-0.287583 1.5314,-2.732525 1.23738,2.877631 z"
           inkscape:randomized="0"
           inkscape:rounded="0"
           inkscape:flatsided="false"
           sodipodi:arg2="0.36651914"
           sodipodi:arg1="-0.26179939"
           sodipodi:r2="2.3584952"
           sodipodi:r1="4.7169905"
           sodipodi:cy="47.590538"
           sodipodi:cx="551.89685"
           sodipodi:sides="5"
           id="use5064"
           style="fill:#ffffff;fill-opacity:1;stroke:none"
           sodipodi:type="star" />
        <path
           inkscape:transform-center-y="-0.17969533"
           inkscape:transform-center-x="0.0029681018"
           transform="matrix(0.37681082,-0.02165148,0.02165148,0.37681082,-125.17029,51.151268)"
           d="m 556.45311,46.369691 -2.35441,2.066056 0.36721,3.110792 -2.69249,-1.600738 -2.84507,1.310527 0.69037,-3.055366 -2.12556,-2.300842 3.11916,-0.287583 1.5314,-2.732525 1.23738,2.877631 z"
           inkscape:randomized="0"
           inkscape:rounded="0"
           inkscape:flatsided="false"
           sodipodi:arg2="0.36651914"
           sodipodi:arg1="-0.26179939"
           sodipodi:r2="2.3584952"
           sodipodi:r1="4.7169905"
           sodipodi:cy="47.590538"
           sodipodi:cx="551.89685"
           sodipodi:sides="5"
           id="use5066"
           style="fill:#ffffff;fill-opacity:1;stroke:none"
           sodipodi:type="star" />
        <path
           inkscape:transform-center-y="-0.17969533"
           inkscape:transform-center-x="0.0029681018"
           transform="matrix(0.37681082,-0.02165148,0.02165148,0.37681082,-118.41095,51.151268)"
           d="m 556.45311,46.369691 -2.35441,2.066056 0.36721,3.110792 -2.69249,-1.600738 -2.84507,1.310527 0.69037,-3.055366 -2.12556,-2.300842 3.11916,-0.287583 1.5314,-2.732525 1.23738,2.877631 z"
           inkscape:randomized="0"
           inkscape:rounded="0"
           inkscape:flatsided="false"
           sodipodi:arg2="0.36651914"
           sodipodi:arg1="-0.26179939"
           sodipodi:r2="2.3584952"
           sodipodi:r1="4.7169905"
           sodipodi:cy="47.590538"
           sodipodi:cx="551.89685"
           sodipodi:sides="5"
           id="use5068"
           style="fill:#ffffff;fill-opacity:1;stroke:none"
           sodipodi:type="star" />
        <path
           inkscape:transform-center-y="-0.17969533"
           inkscape:transform-center-x="0.0029681018"
           transform="matrix(0.37681082,-0.02165148,0.02165148,0.37681082,-111.65162,51.151268)"
           d="m 556.45311,46.369691 -2.35441,2.066056 0.36721,3.110792 -2.69249,-1.600738 -2.84507,1.310527 0.69037,-3.055366 -2.12556,-2.300842 3.11916,-0.287583 1.5314,-2.732525 1.23738,2.877631 z"
           inkscape:randomized="0"
           inkscape:rounded="0"
           inkscape:flatsided="false"
           sodipodi:arg2="0.36651914"
           sodipodi:arg1="-0.26179939"
           sodipodi:r2="2.3584952"
           sodipodi:r1="4.7169905"
           sodipodi:cy="47.590538"
           sodipodi:cx="551.89685"
           sodipodi:sides="5"
           id="use5070"
           style="fill:#ffffff;fill-opacity:1;stroke:none"
           sodipodi:type="star" />
        <path
           inkscape:transform-center-y="-0.17969533"
           inkscape:transform-center-x="0.0029681018"
           transform="matrix(0.37681082,-0.02165148,0.02165148,0.37681082,-104.89228,51.151268)"
           d="m 556.45311,46.369691 -2.35441,2.066056 0.36721,3.110792 -2.69249,-1.600738 -2.84507,1.310527 0.69037,-3.055366 -2.12556,-2.300842 3.11916,-0.287583 1.5314,-2.732525 1.23738,2.877631 z"
           inkscape:randomized="0"
           inkscape:rounded="0"
           inkscape:flatsided="false"
           sodipodi:arg2="0.36651914"
           sodipodi:arg1="-0.26179939"
           sodipodi:r2="2.3584952"
           sodipodi:r1="4.7169905"
           sodipodi:cy="47.590538"
           sodipodi:cx="551.89685"
           sodipodi:sides="5"
           id="use5072"
           style="fill:#ffffff;fill-opacity:1;stroke:none"
           sodipodi:type="star" />
        <path
           inkscape:transform-center-y="-0.17969533"
           inkscape:transform-center-x="0.0029681018"
           transform="matrix(0.37681082,-0.02165148,0.02165148,0.37681082,-98.13294,51.151268)"
           d="m 556.45311,46.369691 -2.35441,2.066056 0.36721,3.110792 -2.69249,-1.600738 -2.84507,1.310527 0.69037,-3.055366 -2.12556,-2.300842 3.11916,-0.287583 1.5314,-2.732525 1.23738,2.877631 z"
           inkscape:randomized="0"
           inkscape:rounded="0"
           inkscape:flatsided="false"
           sodipodi:arg2="0.36651914"
           sodipodi:arg1="-0.26179939"
           sodipodi:r2="2.3584952"
           sodipodi:r1="4.7169905"
           sodipodi:cy="47.590538"
           sodipodi:cx="551.89685"
           sodipodi:sides="5"
           id="use5074"
           style="fill:#ffffff;fill-opacity:1;stroke:none"
           sodipodi:type="star" />
        <path
           inkscape:transform-center-y="-0.17969533"
           inkscape:transform-center-x="0.0029681018"
           transform="matrix(0.37681082,-0.02165148,0.02165148,0.37681082,-121.60921,55.370945)"
           d="m 556.45311,46.369691 -2.35441,2.066056 0.36721,3.110792 -2.69249,-1.600738 -2.84507,1.310527 0.69037,-3.055366 -2.12556,-2.300842 3.11916,-0.287583 1.5314,-2.732525 1.23738,2.877631 z"
           inkscape:randomized="0"
           inkscape:rounded="0"
           inkscape:flatsided="false"
           sodipodi:arg2="0.36651914"
           sodipodi:arg1="-0.26179939"
           sodipodi:r2="2.3584952"
           sodipodi:r1="4.7169905"
           sodipodi:cy="47.590538"
           sodipodi:cx="551.89685"
           sodipodi:sides="5"
           id="use5076"
           style="fill:#ffffff;fill-opacity:1;stroke:none"
           sodipodi:type="star" />
        <path
           inkscape:transform-center-y="-0.17969533"
           inkscape:transform-center-x="0.0029681018"
           transform="matrix(0.37681082,-0.02165148,0.02165148,0.37681082,-114.90292,55.370945)"
           d="m 556.45311,46.369691 -2.35441,2.066056 0.36721,3.110792 -2.69249,-1.600738 -2.84507,1.310527 0.69037,-3.055366 -2.12556,-2.300842 3.11916,-0.287583 1.5314,-2.732525 1.23738,2.877631 z"
           inkscape:randomized="0"
           inkscape:rounded="0"
           inkscape:flatsided="false"
           sodipodi:arg2="0.36651914"
           sodipodi:arg1="-0.26179939"
           sodipodi:r2="2.3584952"
           sodipodi:r1="4.7169905"
           sodipodi:cy="47.590538"
           sodipodi:cx="551.89685"
           sodipodi:sides="5"
           id="use5078"
           style="fill:#ffffff;fill-opacity:1;stroke:none"
           sodipodi:type="star" />
        <path
           inkscape:transform-center-y="-0.17969533"
           inkscape:transform-center-x="0.0029681018"
           transform="matrix(0.37681082,-0.02165148,0.02165148,0.37681082,-108.19662,55.370945)"
           d="m 556.45311,46.369691 -2.35441,2.066056 0.36721,3.110792 -2.69249,-1.600738 -2.84507,1.310527 0.69037,-3.055366 -2.12556,-2.300842 3.11916,-0.287583 1.5314,-2.732525 1.23738,2.877631 z"
           inkscape:randomized="0"
           inkscape:rounded="0"
           inkscape:flatsided="false"
           sodipodi:arg2="0.36651914"
           sodipodi:arg1="-0.26179939"
           sodipodi:r2="2.3584952"
           sodipodi:r1="4.7169905"
           sodipodi:cy="47.590538"
           sodipodi:cx="551.89685"
           sodipodi:sides="5"
           id="use5080"
           style="fill:#ffffff;fill-opacity:1;stroke:none"
           sodipodi:type="star" />
        <path
           inkscape:transform-center-y="-0.17969533"
           inkscape:transform-center-x="0.0029681018"
           transform="matrix(0.37681082,-0.02165148,0.02165148,0.37681082,-101.49032,55.370945)"
           d="m 556.45311,46.369691 -2.35441,2.066056 0.36721,3.110792 -2.69249,-1.600738 -2.84507,1.310527 0.69037,-3.055366 -2.12556,-2.300842 3.11916,-0.287583 1.5314,-2.732525 1.23738,2.877631 z"
           inkscape:randomized="0"
           inkscape:rounded="0"
           inkscape:flatsided="false"
           sodipodi:arg2="0.36651914"
           sodipodi:arg1="-0.26179939"
           sodipodi:r2="2.3584952"
           sodipodi:r1="4.7169905"
           sodipodi:cy="47.590538"
           sodipodi:cx="551.89685"
           sodipodi:sides="5"
           id="use5082"
           style="fill:#ffffff;fill-opacity:1;stroke:none"
           sodipodi:type="star" />
        <path
           inkscape:transform-center-y="-0.17969533"
           inkscape:transform-center-x="0.0029681018"
           transform="matrix(0.37681082,-0.02165148,0.02165148,0.37681082,-94.784024,55.370945)"
           d="m 556.45311,46.369691 -2.35441,2.066056 0.36721,3.110792 -2.69249,-1.600738 -2.84507,1.310527 0.69037,-3.055366 -2.12556,-2.300842 3.11916,-0.287583 1.5314,-2.732525 1.23738,2.877631 z"
           inkscape:randomized="0"
           inkscape:rounded="0"
           inkscape:flatsided="false"
           sodipodi:arg2="0.36651914"
           sodipodi:arg1="-0.26179939"
           sodipodi:r2="2.3584952"
           sodipodi:r1="4.7169905"
           sodipodi:cy="47.590538"
           sodipodi:cx="551.89685"
           sodipodi:sides="5"
           id="use5084"
           style="fill:#ffffff;fill-opacity:1;stroke:none"
           sodipodi:type="star" />
        <path
           inkscape:transform-center-y="-0.17969533"
           inkscape:transform-center-x="0.0029681018"
           transform="matrix(0.37681082,-0.02165148,0.02165148,0.37681082,-128.31551,55.370945)"
           d="m 556.45311,46.369691 -2.35441,2.066056 0.36721,3.110792 -2.69249,-1.600738 -2.84507,1.310527 0.69037,-3.055366 -2.12556,-2.300842 3.11916,-0.287583 1.5314,-2.732525 1.23738,2.877631 z"
           inkscape:randomized="0"
           inkscape:rounded="0"
           inkscape:flatsided="false"
           sodipodi:arg2="0.36651914"
           sodipodi:arg1="-0.26179939"
           sodipodi:r2="2.3584952"
           sodipodi:r1="4.7169905"
           sodipodi:cy="47.590538"
           sodipodi:cx="551.89685"
           sodipodi:sides="5"
           id="use5086"
           style="fill:#ffffff;fill-opacity:1;stroke:none"
           sodipodi:type="star" />
      </g>
    </g>
  </g>
</svg>
